<svg width="81" height="80" viewBox="0 0 81 80" fill="none" xmlns="http://www.w3.org/2000/svg">
<circle cx="40.5" cy="40" r="40" fill="white"/>
<path d="M29.5065 39.2191C29.7332 37.2831 30.5948 35.5383 31.8841 34.176C31.0107 32.6107 29.4927 31.4751 27.7243 31.0571L25.1416 37.5236L24.5798 32.8512H24.9504C25.1771 32.8512 25.3565 32.6718 25.3565 32.4451V31.1892C25.3565 30.9625 25.1771 30.7713 24.9504 30.7713H22.8941C22.6793 30.7713 22.488 30.9625 22.488 31.1892V32.4451C22.488 32.6718 22.6793 32.8512 22.8941 32.8512H23.2766L22.7147 37.5236L20.1203 31.0571C17.514 31.6782 15.4833 33.8409 15.1482 36.6147L14.5075 41.9318C14.4365 42.6258 14.8781 43.2705 15.5583 43.4144C16.5263 43.6293 17.5179 43.785 18.5234 43.9171L19.2528 56.3591C19.3001 57.339 20.1144 58.1039 21.106 58.1039H26.7602C27.7401 58.1039 28.5523 57.339 28.6134 56.3591L29.1753 46.5589C28.8894 45.9497 28.781 45.2558 28.8638 44.5381L29.5085 39.2191H29.5065Z" fill="#3990FF"/>
<path d="M23.9272 29.5765C27.125 29.5765 29.7155 26.984 29.7155 23.7883C29.7155 20.5925 27.125 18 23.9272 18C20.7295 18 18.1389 20.5925 18.1389 23.7883C18.1389 26.984 20.7295 29.5765 23.9272 29.5765Z" fill="#3990FF"/>
<path d="M66.1426 36.6147C65.8192 33.8409 63.7768 31.6782 61.1705 31.0571L58.5878 37.5236L58.026 32.8512H58.3966C58.6233 32.8512 58.8027 32.6718 58.8027 32.4451V31.1892C58.8027 30.9625 58.6233 30.7713 58.3966 30.7713H56.3522C56.1255 30.7713 55.9342 30.9625 55.9342 31.1892V32.4451C55.9342 32.6718 56.1255 32.8512 56.3522 32.8512H56.7228L56.1609 37.5236L53.5665 31.0571C51.7981 31.4751 50.2918 32.6107 49.4066 34.1642C50.698 35.5265 51.5694 37.2831 51.7981 39.221L52.4427 44.5401C52.5255 45.2696 52.4072 45.9615 52.1194 46.5727L52.6931 56.3611C52.7404 57.3409 53.5546 58.1059 54.5463 58.1059H60.2005C61.1803 58.1059 61.9926 57.3409 62.0537 56.3611L62.7713 43.9191C63.7748 43.787 64.7803 43.6332 65.7483 43.4164C66.4304 43.2724 66.872 42.6278 66.7872 41.9338L66.1426 36.6147Z" fill="#3990FF"/>
<path d="M51.5832 23.7883C51.5832 26.986 54.1737 29.5765 57.3714 29.5765C60.5692 29.5765 63.1597 26.984 63.1597 23.7883C63.1597 20.5925 60.5692 18 57.3714 18C54.1737 18 51.5832 20.5925 51.5832 23.7883Z" fill="#3990FF"/>
<path d="M44.4523 33.9453L41.8618 40.4197L41.2999 35.7414H41.6745C41.9012 35.7414 42.0826 35.558 42.0826 35.3333V34.0755C42.0826 33.8507 41.8992 33.6674 41.6745 33.6674H39.6261C39.4014 33.6674 39.218 33.8507 39.218 34.0755V35.3333C39.218 35.558 39.4014 35.7414 39.6261 35.7414H40.0007L39.4388 40.4177L36.8503 33.9434C34.2459 34.5664 32.2134 36.735 31.8782 39.503L31.2355 44.824C31.1527 45.514 31.5982 46.1685 32.2784 46.3125C33.2444 46.5195 34.242 46.6772 35.2494 46.8112L35.969 59.2493C36.0242 60.2331 36.8384 61 37.8222 61H43.4784C44.4622 61 45.2744 60.2331 45.3316 59.2493L46.0512 46.8112C47.0606 46.6772 48.0582 46.5175 49.0242 46.3125C49.7024 46.1685 50.1499 45.514 50.0671 44.824L49.4264 39.503C49.0991 36.735 47.0606 34.5664 44.4543 33.9434L44.4523 33.9453Z" fill="#3990FF"/>
<path d="M40.6493 20.8941C37.4516 20.8941 34.8611 23.4866 34.8611 26.6824C34.8611 29.8782 37.4516 32.4726 40.6493 32.4726C43.8471 32.4726 46.4376 29.8801 46.4376 26.6824C46.4376 23.4847 43.8471 20.8941 40.6493 20.8941Z" fill="#3990FF"/>
</svg>
